<?xml version="1.0" standalone="no"?><!DOCTYPE svg PUBLIC "-//W3C//DTD SVG 1.1//EN" "http://www.w3.org/Graphics/SVG/1.1/DTD/svg11.dtd"><svg class="icon" style="" viewBox="0 0 1024 1024" version="1.1" xmlns="http://www.w3.org/2000/svg" p-id="4054" xmlns:xlink="http://www.w3.org/1999/xlink" width="200" height="200"><defs><style type="text/css"><![CDATA[

]]></style></defs><path d="M762.824117 342.677617c-16.049534 0-29.070082 13.05534-29.070082 29.175483 0 16.104793 13.021571 29.15911 29.070082 29.15911 16.071024 0 29.092595-13.054317 29.092595-29.15911C791.916712 355.73091 778.893094 342.677617 762.824117 342.677617z" p-id="4055" fill="#cdcdcd"></path><path d="M880.926956 1.12359 143.070998 1.12359c-78.384231 0-141.927453 63.543222-141.927453 141.928476l0 737.89689c0 78.385255 63.543222 141.927453 141.927453 141.927453l737.856981 0c78.385255 0 141.92643-63.543222 141.92643-141.927453L1022.854409 143.052067C1022.854409 64.666812 959.313234 1.12359 880.926956 1.12359zM896.971373 755.839541c0 29.011754-22.206768 52.534494-49.622164 52.534494L177.606559 808.374034c-27.412326 0-49.611931-23.52274-49.611931-52.534494L127.994628 348.724333c0-29.000498 22.199605-52.53347 49.611931-52.53347l152.412248 0c12.317537-9.120728 25.385157-24.51944 39.850613-49.367361 21.3564-36.696784 39.501666-32.190143 39.501666-32.190143l177.475064 0c0 0 55.120388 0.978281 70.41063 32.549324 12.600993 26.015513 26.306132 40.689724 37.858236 49.006134l152.235217 0 0-0.00307c27.405163 0 49.622164 23.52581 49.622164 52.525284L896.972397 755.839541z" p-id="4056" fill="#cdcdcd"></path><path d="M512.392438 366.177843c-96.450702 0-174.642552 78.214363-174.642552 174.689624 0 96.476285 78.18878 174.687578 174.642552 174.687578 96.438423 0 174.641529-78.211293 174.641529-174.687578C687.033967 444.392206 608.830861 366.177843 512.392438 366.177843zM512.483512 680.408571c-77.168544 0-139.741671-62.552661-139.741671-139.715065 0-77.166497 62.573127-139.728368 139.741671-139.728368 77.17366 0 139.739625 62.561871 139.739625 139.728368C652.223137 617.85591 589.663312 680.408571 512.483512 680.408571z" p-id="4057" fill="#cdcdcd"></path></svg>