<?xml version="1.0" standalone="no"?><!DOCTYPE svg PUBLIC "-//W3C//DTD SVG 1.1//EN" "http://www.w3.org/Graphics/SVG/1.1/DTD/svg11.dtd"><svg class="icon" style="" viewBox="0 0 1024 1024" version="1.1" xmlns="http://www.w3.org/2000/svg" p-id="3244" xmlns:xlink="http://www.w3.org/1999/xlink" width="200" height="200"><defs><style type="text/css"><![CDATA[

]]></style></defs><path d="M512 1015.873781c-277.832193 0-503.873171-226.036095-503.873171-503.873171 0-277.832193 226.040978-503.873171 503.873171-503.873171s503.873171 226.040978 503.873171 503.873171S789.830972 1015.873781 512 1015.873781L512 1015.873781zM512 40.637198c-259.912025 0-471.363413 211.452609-471.363413 471.363413S252.087975 983.370128 512 983.370128s471.363413-211.457493 471.363413-471.369517S771.910804 40.637198 512 40.637198L512 40.637198zM512 40.637198" p-id="3245" fill="#bfbfbf"></path><path d="M512 1024C229.678609 1024 0.00061 794.322002 0.00061 512.00061c0-282.315287 229.679219-511.99939 511.99939-511.99939s511.99939 229.679219 511.99939 511.99939S794.32017 1024 512 1024L512 1024zM512 16.254879C238.638693 16.254879 16.253048 238.646629 16.253048 512.00061S238.644797 1007.747563 512 1007.747563s495.748173-222.391749 495.748173-495.746952S785.360086 16.254879 512 16.254879L512 16.254879zM512 991.491463c-264.395119 0-479.489631-215.095733-479.489631-479.489631S247.604881 32.510979 512 32.510979s479.489631 215.095733 479.489631 479.489631C991.489631 776.401834 776.393898 991.491463 512 991.491463L512 991.491463zM512 48.763416c-255.42893 0-463.237194 207.808264-463.237194 463.237194S256.57107 975.239025 512 975.239025s463.237194-207.808264 463.237194-463.237194S767.42771 48.763416 512 48.763416L512 48.763416zM512 48.763416" p-id="3246" fill="#bfbfbf"></path><path d="M705.94388 661.36383 556.585544 512.005494 705.940217 362.652041c12.312637-12.312637 12.312637-32.275348 0-44.587985-12.312637-12.312637-32.275348-12.311417-44.586765 0.001221L511.998779 467.418729 362.63678 318.056731c-12.312637-12.312637-32.274127-12.312637-44.583102-0.002442-12.312637 12.312637-12.312637 32.274127 0 44.585544l149.358336 149.358336L318.057341 661.352842c-12.308975 12.307754-12.304091 32.274127 0.007325 44.585544 12.307754 12.308975 32.275348 12.312637 44.583102 0.004884l149.354673-149.354673 149.358336 149.358336c12.312637 12.312637 32.274127 12.312637 44.585544 0C718.258959 693.634295 718.256517 673.675247 705.94388 661.36383L705.94388 661.36383zM705.94388 661.36383" p-id="3247" fill="#bfbfbf"></path></svg>